<svg xmlns="http://www.w3.org/2000/svg" viewBox="0 0 178.87 75.72"><defs><style>.cls-1{fill:#316a71;}.cls-1,.cls-2,.cls-3{fill-rule:evenodd;}.cls-2{fill:#305671;}.cls-3{fill:#f8c333;}</style></defs><title>Asset 1</title><g id="Layer_2" data-name="Layer 2"><g id="Layer_1-2" data-name="Layer 1"><path class="cls-1" d="M22.65,15.62c-2.35.24-4.54-.09-5.94-2.23S15.18,8.83,17.09,7a4.74,4.74,0,0,1,6.71-.28c2.13,1.71,2.08,4.1.89,6.39a16.43,16.43,0,0,1-2.09,2.6Z"/><path class="cls-1" d="M42.2,15.66a17.52,17.52,0,0,1-1.46-2.24,4.68,4.68,0,0,1,1.3-6,4.55,4.55,0,0,1,6.15-.11c1.71,1.33,2.56,3.19,1.68,5.33-1,2.36-2.7,3.82-5.44,3.55a18.39,18.39,0,0,1-2.28-.54l.05,0"/><path class="cls-2" d="M42.15,15.62C46,18.94,50.8,18,56,18.45c-4.4,3.8-9.69,6.29-10.21,12.34-.44,5.27,1,10.43,1.35,15.79C42.4,43,37.05,27.26,33.51,7.31a50.43,50.43,0,0,0,1,13.29,107.93,107.93,0,0,0,4.12,13.12c1.53,4.26,3.28,8.45,5.09,13.08-3.25-2.66-6.06-5.18-9.1-7.38-4.25-3.09-6.51-2.86-10.33.85-2.24,2.15-4.32,4.48-7.06,7.35,1-4.84,2-8.88,2.68-13,1.28-7.87-.31-10.92-7.31-14.7-.87-.47-1.93-.67-2.5-1.93,3.93-2.14,8.76.26,12.52-2.39l0,0c3.25-1.29,4.91-4.1,6.47-6.93,1.44-2.6,2.69-5.3,4.4-8.73C34.84,3.48,35.84,6.25,37,8.94s2.34,5.34,5.19,6.72Z"/><path class="cls-3" d="M47.65,60.47a66.1,66.1,0,0,0,9.41-8.21c2-2.21,2.65-4.63.85-7.31-.44-.64-1.15-1.29-.79-2.1,1.56-3.45.56-6.81-.17-10.2A5.77,5.77,0,0,1,57,30.31,2.57,2.57,0,0,1,59.18,28c1.21-.14,1.77.78,2.22,1.72a28.39,28.39,0,0,1,2.95,13.68C63.94,53.7,60,62.34,52,68.94c-1.58,1.31-3.23,2.5-2.79,4.94.32,1.75-1,1.76-2.11,1.77-3.7,0-7.4,0-11.1,0-1.73,0-2.4-.66-2.12-2.48.25-1.65.13-3.35.23-5,.31-5.33,2.14-9.93,6.94-12.72a42.87,42.87,0,0,0,10-7.86,11.68,11.68,0,0,1,2.38-1.85c1.06-.65,2.26-1.28,3.39-.22a3.28,3.28,0,0,1,.88,4c-1.26,2.9-3.76,4.69-6,6.68-1.49,1.32-3.2,2.4-4,4.3"/><path class="cls-3" d="M16.42,60.66a15.83,15.83,0,0,0-4.81-5.43c-1.89-1.55-3.92-3-4.83-5.47a3.51,3.51,0,0,1,.93-4.28c1.33-1.07,2.71-.38,3.65.56,4.15,4.12,8.92,7.39,13.68,10.73,3.49,2.46,4.79,6.37,5.08,10.57.07,1.11,0,2.24,0,3.36.23,5,.24,5-5,5l-5.71,0c-2.44,0-5.17.59-4.48-3.57.24-1.43-1.38-2.16-2.41-3C1.09,59.69-3.14,43.73,2.45,30.88c.55-1.26.8-3.2,2.77-2.78s2.25,2.33,2.06,4.06c-.38,3.65-1.52,7.27,0,10.94.15.39-.24,1-.48,1.53-2.1,4.28-2,5.27,1.3,8.52,2.69,2.61,5.57,5,8.37,7.51"/><path class="cls-3" d="M68.81,65.35a4,4,0,0,1,.89.16c.36.18.32.41.36.9s0,1.9,0,3.61c0,2,0,3.18,0,3.77s-.1.86-.52.95a4,4,0,0,1-.77.12.39.39,0,0,0,0,.24c.46,0,1,0,1.82,0h2a.49.49,0,0,0,0-.24,8.65,8.65,0,0,1-.92-.13c-.47-.11-.48-.43-.52-.94s0-2.33,0-3.3c0,0,0-.08.07-.08.25,0,2.25,0,2.87,0a.64.64,0,0,1,.51.47,3,3,0,0,1,.17.68s.24,0,.25-.05c0-.31,0-.72,0-1.27a11.94,11.94,0,0,1,.11-1.5s-.22-.07-.25,0a5.72,5.72,0,0,1-.21.72c-.09.2-.23.42-.83.44s-2.22,0-2.58,0c0,0-.08,0-.08,0,0-1,0-3.28,0-3.94,0-.13.07-.28.2-.29s2.2,0,2.74,0a.74.74,0,0,1,.7.53A4.86,4.86,0,0,1,75,67.22s.25,0,.27,0a10.43,10.43,0,0,1,.26-2.12s0-.07-.05-.07a5.38,5.38,0,0,1-1.37.12H70.55c-.8,0-1.43,0-1.71,0,0,0,0,.22,0,.22Z"/><path class="cls-3" d="M83.76,74.83a3.86,3.86,0,0,1-2.2-.62,5.42,5.42,0,0,1-2.13-4.53,4.33,4.33,0,0,1,1.82-3.94,3.43,3.43,0,0,1,1.62-.39,3.77,3.77,0,0,1,2.31.73,5.23,5.23,0,0,1,2,4.36,4.55,4.55,0,0,1-1.49,3.77,3,3,0,0,1-1.9.62m-.63.51a5,5,0,0,0,4.13-2.14,5.45,5.45,0,0,0,.95-3.27c0-2.63-1.61-5.05-4.79-5.05A5,5,0,0,0,78.27,70a5.75,5.75,0,0,0,1.37,3.82A4.83,4.83,0,0,0,83.13,75.34Z"/><path class="cls-3" d="M90.68,65.37a6.5,6.5,0,0,1,.81.14c.35.13.35.45.37.87,0,.82,0,5.08.09,6,.23,2,1.49,2.93,3.75,2.93,1.58,0,3.27-.58,3.69-2.71.21-1,.2-1.56.28-5.83,0-1,.13-1.19.53-1.3a3.51,3.51,0,0,1,.6-.12.33.33,0,0,0,0-.24c-.24,0-.78,0-1.41,0H97.7a.34.34,0,0,0,0,.24c.33,0,.46,0,.68.1.39.08.68.2.69,1.21.07,1.76,0,3.64,0,4.87-.09,2.57-1.35,3.17-2.9,3.17a3.28,3.28,0,0,1-2.55-1,3.33,3.33,0,0,1-.65-2.17c0-.85,0-3.8,0-5.12,0-.68.11-.81.39-.9A4.48,4.48,0,0,1,94,65.4a.33.33,0,0,0,0-.24c-.34,0-.87,0-1.57,0H90.68s-.05.2,0,.24Z"/><path class="cls-3" d="M102.52,65.37c.67.08,1,.11,1.38.5a1.11,1.11,0,0,1,.29.67c0,3.39-.1,6.35-.13,7.09s-.29,1-.66,1.11a2.69,2.69,0,0,1-.67.12s0,.21,0,.24c.33,0,.85,0,1.57,0h1.82s.07-.22,0-.24a4.27,4.27,0,0,1-.86-.15c-.34-.09-.58-.27-.61-1.08s0-5.2,0-6.8a0,0,0,0,1,.06,0c.73.89,5.84,7.1,6.65,8.31.16,0,.66,0,.81,0,0-.5,0-1.4,0-2.13,0-2.15,0-5.49.1-6.68,0-.37.11-.71.52-.82a3.92,3.92,0,0,1,.62-.13.25.25,0,0,0,0-.24c-.17,0-1,0-1.47,0h-1.83s-.07.21,0,.24a5.25,5.25,0,0,1,1,.16c.45.14.51.43.54.87.1,1.13.07,5,.07,7.17l0,0c-.58-.66-4.41-5.29-6.28-7.57a6.48,6.48,0,0,1-.63-.87H104c-.5,0-1.24,0-1.46,0,0,0,0,.21,0,.24"/><path class="cls-3" d="M117.76,73.79c0-.51,0-2.33,0-3.8V65.93c0-.26.13-.32.21-.35a4.27,4.27,0,0,1,.92-.08,5.75,5.75,0,0,1,3.27.74A4.41,4.41,0,0,1,124,70.15a4.59,4.59,0,0,1-1.3,3.66,3.61,3.61,0,0,1-2.57.88,5,5,0,0,1-2-.28.68.68,0,0,1-.35-.62Zm-2.34-8.42a4.62,4.62,0,0,1,.78.13c.41.09.46.29.49,1s0,2.65,0,3.46c0,1.34,0,2.9,0,4-.05.68-.26.74-.54.82a7.37,7.37,0,0,1-.85.15c-.05,0-.05.22,0,.24.37,0,1.19,0,1.37,0,1.37,0,1.83.06,2.75.06a6.27,6.27,0,0,0,3.4-.9,4.84,4.84,0,0,0,2.34-4.38,4.63,4.63,0,0,0-1.47-3.64,5.11,5.11,0,0,0-3.47-1.13c-1.26,0-1.95.06-3,.06l-1.74,0A.33.33,0,0,0,115.42,65.37Z"/><path class="cls-3" d="M131.74,66.35c.23.71.82,2.58,1.2,3.8,0,.07,0,.11,0,.11s-.71,0-1.06,0h-1.42a.1.1,0,0,1-.07-.11c.25-.71,1-3.11,1.31-3.79h.07Zm-4.93,8.51s0,.22,0,.24c.24,0,.73,0,1.52,0h1.84a.33.33,0,0,0,0-.24,5.53,5.53,0,0,1-.68-.13c-.54-.13-.52-.39-.47-.68a26.86,26.86,0,0,1,1.05-3.07.18.18,0,0,1,.13-.12H133s.11.08.11.08c.31.88.92,2.61,1.1,3.3.07.23.07.34-.19.45a4.83,4.83,0,0,1-.81.16.49.49,0,0,0,0,.24c.34,0,1.4,0,1.79,0l1.7,0s.06-.19,0-.24c-1.08-.13-1.15-.18-1.57-1.13-.48-1.19-2.35-7.06-2.64-7.86-.1-.31-.16-.57-.2-.71h-.74a4.14,4.14,0,0,1-.23.81c-.35,1-1.8,5.11-2.79,7.43-.5,1.19-.66,1.32-1.79,1.46Z"/><path class="cls-3" d="M144.27,74.86a4.47,4.47,0,0,1-.79-.13c-.35-.1-.55-.18-.59-1.2,0-.75-.07-5.46-.07-7.76a.18.18,0,0,1,.08-.15c.4,0,1.87,0,2.52,0a.62.62,0,0,1,.61.45,5.11,5.11,0,0,1,.23,1.27s.25.07.27,0a16.32,16.32,0,0,1,.32-2.35s0,0-.06,0a3.48,3.48,0,0,1-1.37.19h-6a3.21,3.21,0,0,1-1.21-.24s-.08,0-.08,0c0,.64-.18,1.77-.29,2.43,0,.05.22.08.26.05a6.65,6.65,0,0,1,.6-1.42.67.67,0,0,1,.58-.39c.34,0,2.1,0,2.4,0a.12.12,0,0,1,.1.11c0,2.61,0,7.37,0,7.83,0,.73-.09,1.08-.58,1.16a8.34,8.34,0,0,1-1.07.15.21.21,0,0,0,0,.24c.47,0,1.31,0,2.2,0h1.93s.07-.19,0-.24Z"/><path class="cls-3" d="M149.11,65.37a6,6,0,0,1,.88.14c.37.1.35.44.4.82,0,.75,0,2,0,3.21s0,4.13,0,4.51-.09.61-.5.69a5.15,5.15,0,0,1-.72.12.23.23,0,0,0,0,.24c.84,0,1.16,0,1.95,0h1.63s.07-.19,0-.24a4.42,4.42,0,0,1-.83-.15c-.4-.11-.45-.38-.48-.88s0-2.32,0-3.84,0-3,.05-3.69c0-.5.09-.74.45-.84.14,0,.41-.06.66-.09a.29.29,0,0,0,0-.24c-.39,0-.87,0-1.55,0h-1.87s-.06.21,0,.24"/><path class="cls-3" d="M160.82,74.83a3.86,3.86,0,0,1-2.2-.62,5.42,5.42,0,0,1-2.13-4.53,4.33,4.33,0,0,1,1.82-3.94,3.43,3.43,0,0,1,1.62-.39,3.72,3.72,0,0,1,2.3.73,5.2,5.2,0,0,1,2,4.36,4.54,4.54,0,0,1-1.48,3.77,3,3,0,0,1-1.9.62m-.64.51a4.93,4.93,0,0,0,4.13-2.14,5.39,5.39,0,0,0,1-3.27c0-2.63-1.61-5.05-4.79-5.05A5.44,5.44,0,0,0,156.21,67a5.34,5.34,0,0,0-.88,3,5.75,5.75,0,0,0,1.37,3.82A4.83,4.83,0,0,0,160.18,75.34Z"/><path class="cls-3" d="M167.49,65.37c.67.08,1,.11,1.38.5a1.11,1.11,0,0,1,.29.67c0,3.39-.1,6.35-.13,7.09s-.29,1-.66,1.11a2.69,2.69,0,0,1-.66.12s0,.21,0,.24c.32,0,.84,0,1.56,0h1.83s.06-.22,0-.24a4.27,4.27,0,0,1-.86-.15c-.34-.09-.58-.27-.61-1.08s0-5.2,0-6.8a0,0,0,0,1,.06,0c.73.89,5.84,7.1,6.65,8.31.16,0,.66,0,.81,0,0-.5,0-1.4,0-2.13,0-2.15,0-5.49.09-6.68a.76.76,0,0,1,.52-.82,3.92,3.92,0,0,1,.62-.13.25.25,0,0,0,0-.24c-.17,0-1,0-1.46,0h-1.84s-.07.21,0,.24a5.25,5.25,0,0,1,1,.16c.45.14.51.43.55.87.09,1.13.06,5,.06,7.17l0,0c-.58-.66-4.41-5.29-6.28-7.57a6.48,6.48,0,0,1-.63-.87H169c-.5,0-1.24,0-1.47,0,0,0-.05.21,0,.24"/><path class="cls-2" d="M85.69,18.64c0,.15,1,.06,1.13-.1a43,43,0,0,1,.51-5.26c-1.45-.06-3.9-.54-6.48-.54a13.84,13.84,0,0,0-6.55,1.38,9.57,9.57,0,0,0-5.24,8.8c0,6.86,4.2,10.54,11.4,10.54a15.32,15.32,0,0,0,4.87-.78c.88-.58,2.19-3.12,2.59-4.48a1.67,1.67,0,0,0-.91-.61,12.45,12.45,0,0,1-2.45,3.19,4.9,4.9,0,0,1-3.27,1.06c-5.38,0-7.64-4.6-7.64-9.24C73.65,16.89,76.13,14,80,14a8.13,8.13,0,0,1,3.84.8c1.25.72,1.55,1.75,1.87,3.88"/><path class="cls-2" d="M97.73,17.48c.61,1.6,1.74,5,2.16,6.31a.34.34,0,0,1-.09.19c-.33,0-1.2,0-2.17,0h-2.1a.18.18,0,0,1-.06-.23C96,22.24,97,19.25,97.6,17.5c0,0,.09,0,.13,0ZM88,31.91A2,2,0,0,0,88,33c1,0,2.2-.1,3.59-.1h4.1a2,2,0,0,0,.09-1.06,10.35,10.35,0,0,1-1.58-.3c-.87-.19-.94-.61-.94-1.09A27.25,27.25,0,0,1,94.66,26c.07-.12.22-.29.35-.29.42,0,1.07,0,2.59,0,1.06,0,2.16,0,2.67,0a.46.46,0,0,1,.29.23c.49,1.23,1.36,3.61,1.65,4.77a.57.57,0,0,1-.32.7,7,7,0,0,1-1.65.4,2.11,2.11,0,0,0,0,1.06c1,0,2.39-.11,4.72-.11,2.13,0,3.61.11,4.45.11a2,2,0,0,0,.09-1.06c-2.38-.33-2.58-.55-3.57-3.07-1.14-2.8-4-11.08-5-13.79-.2-.54-.42-1.29-.55-1.8-.33,0-.78.06-1.46.06s-1.07,0-1.45,0a11,11,0,0,1-.61,2.12c-.78,2.26-3.52,9.74-5.26,13.83-.91,2.13-1.33,2.38-3.62,2.7Z"/><path class="cls-2" d="M117.28,14.42c2.81,0,4.33,1.83,4.33,4.64,0,2.05-.78,3-1.68,3.44a10.12,10.12,0,0,1-3.71.32.2.2,0,0,1-.19-.22c0-3.68,0-6.7.07-7.54a.73.73,0,0,1,.22-.49,2.56,2.56,0,0,1,1-.15m-7.84-.17a14.48,14.48,0,0,1,1.65.29c.68.16.93.58,1,1.45.06,1.29.06,3.68.06,6.83,0,1.94,0,6.28-.1,7.22s-.29,1.48-1,1.64c-.4.1-.91.16-1.52.26-.19.1-.13.9,0,1,.68,0,2.09-.1,4.58-.1h4.65c.16-.07.23-1,.06-1.06a13,13,0,0,1-1.74-.3c-.71-.19-.9-.54-1-1.55,0-1.25-.07-3.57-.07-5.51,0-.06.09-.19.13-.19h1.29a1.09,1.09,0,0,1,.91.59,65.19,65.19,0,0,0,4,6.12A4.81,4.81,0,0,0,124,32.29c1.27.62,4.33.75,6.08.62a2.24,2.24,0,0,0,.22-1.07A4.16,4.16,0,0,1,127,30.33a47.57,47.57,0,0,1-5.16-7c0-.06,0-.22,0-.25,2-.87,3.74-2.39,3.74-5,0-2.87-2.11-4.93-6-4.93-1.72,0-3.46.06-5.88.06-1.16,0-3.48-.1-4.26-.1-.17.07-.23.84-.07,1Z"/><path class="cls-2" d="M137.81,14.42c2.81,0,4.33,1.83,4.33,4.64,0,2.05-.78,3-1.68,3.44a10.12,10.12,0,0,1-3.71.32.2.2,0,0,1-.19-.22c0-3.68,0-6.7.06-7.54a.77.77,0,0,1,.22-.49,2.61,2.61,0,0,1,1-.15M130,14.25a14.9,14.9,0,0,1,1.65.29c.68.16.93.58,1,1.45.06,1.29.06,3.68.06,6.83,0,1.94,0,6.28-.1,7.22s-.29,1.48-1,1.64c-.39.1-.9.16-1.51.26-.2.1-.13.9,0,1,.67,0,2.09-.1,4.58-.1h4.65c.15-.07.23-1,.06-1.06a13.2,13.2,0,0,1-1.75-.3c-.7-.19-.89-.54-1-1.55,0-1.25-.06-3.57-.06-5.51,0-.06.09-.19.13-.19H138a1.08,1.08,0,0,1,.9.59,67.33,67.33,0,0,0,4,6.12,4.71,4.71,0,0,0,1.58,1.31c1.26.62,4.33.75,6.08.62a2.36,2.36,0,0,0,.22-1.07,4.14,4.14,0,0,1-3.23-1.51,46.86,46.86,0,0,1-5.16-7c0-.06,0-.22,0-.25,2.06-.87,3.74-2.39,3.74-5,0-2.87-2.1-4.93-6-4.93-1.71,0-3.46.06-5.87.06-1.16,0-3.49-.1-4.26-.1-.17.07-.23.84-.07,1Z"/><path class="cls-2" d="M150.46,14.25a12.53,12.53,0,0,1,1.81.32c.62.19.78.68.85,1.39.06,1.42.06,3.16.06,6.31V30c-.1,1.09-.27,1.45-1.13,1.64a10.83,10.83,0,0,1-1.52.23,1.25,1.25,0,0,0,0,1.07c1.16,0,2.32-.1,4.87-.1,2.07,0,3.49.06,4.62.06a1.34,1.34,0,0,0,.13-1.06,14.94,14.94,0,0,1-1.84-.33c-.94-.22-1-.89-1-1.61-.07-1.19-.07-3.8-.07-7.44V16.15c0-.93.1-1.39.81-1.64a14.86,14.86,0,0,1,1.67-.3,1.55,1.55,0,0,0,0-1c-.7,0-2,.09-4.61.09H150.5a1.43,1.43,0,0,0,0,1Z"/><path class="cls-2" d="M161.79,14.25a12.48,12.48,0,0,1,1.72.29c.64.2.84.45.9,1.45s.09,3.61.09,6.19c0,3.63,0,6.31,0,7.73,0,1.09-.33,1.49-1,1.64a15.2,15.2,0,0,1-2.39.36,1.94,1.94,0,0,0,0,1.07c1.61,0,3.71-.1,5.55-.1,3.42,0,6.26.12,9,.12,1.45,0,1.64-.19,1.81-.51a30.13,30.13,0,0,0,1.42-4.61,2.08,2.08,0,0,0-1.1-.42,13.24,13.24,0,0,1-1.68,2.93c-.67.81-1.09,1-2.55,1a32.17,32.17,0,0,1-4.26-.23,1.11,1.11,0,0,1-.71-1.13c0-1.55,0-4.12,0-5.93,0-.07.1-.26.2-.26,1,0,3.57,0,4.29.06a1.22,1.22,0,0,1,1.1.91c.12.42.1.42.32,1.32a1.94,1.94,0,0,0,1.19,0c0-.84-.06-2.13-.06-3.13s.13-2.35.19-3.09a2,2,0,0,0-1.22-.07,11.68,11.68,0,0,1-.3,1.2c-.19.7-.45,1-1.12,1.06-1.07.1-3.4.06-4.39.06a.24.24,0,0,1-.2-.25c0-1.94,0-4.45,0-6.45,0-.16.16-.55.36-.58.45-.06,3.87-.06,4.65,0a1.5,1.5,0,0,1,1.38,1,7.36,7.36,0,0,1,.52,2.26,1.86,1.86,0,0,0,1.16-.1,37.2,37.2,0,0,1,.52-4.71.14.14,0,0,0-.13-.12c-1,.12-2.75.16-4,.16h-6.45c-1.65,0-3.56-.1-4.69-.1a1.4,1.4,0,0,0-.06,1Z"/><path class="cls-2" d="M88.17,58.52c-.58-.32-.71-.45-.77-.83s0-2.46,0-3.39c0-1.29.19-1.58.8-1.77l1-.23a1.67,1.67,0,0,0,0-1.06c-.68,0-1.74.1-3.91.1s-4.19-.13-5.16-.13a1.66,1.66,0,0,0,0,1.06c.94.17,1.56.17,2.13.32.95.26,1.1.78,1.14,1.84a22.32,22.32,0,0,1-.07,3.29,1.44,1.44,0,0,1-.52,1.09,3.1,3.1,0,0,1-1.61.39c-4.68,0-7.49-4.09-7.49-9.69,0-6.07,2.78-8.52,6.52-8.52a7.16,7.16,0,0,1,4.36,1.16c.88.62,1.26,1.68,1.52,3.9a1.54,1.54,0,0,0,1.19-.12,31.13,31.13,0,0,1,.58-5.48,55.84,55.84,0,0,0-6.59-.71,15,15,0,0,0-6.45,1.19,9.43,9.43,0,0,0-5.78,9c0,7,4.24,10.48,11.59,10.48A28.82,28.82,0,0,0,88,59.23a1.86,1.86,0,0,0,.16-.74Z"/><path class="cls-2" d="M101.08,41.45c2.81,0,4.33,1.84,4.33,4.64,0,2.06-.78,3-1.68,3.44a9.69,9.69,0,0,1-3.71.32.2.2,0,0,1-.19-.22c0-3.68,0-6.7.06-7.54a.77.77,0,0,1,.22-.48,2.63,2.63,0,0,1,1-.16m-7.84-.16a12.87,12.87,0,0,1,1.65.29c.68.15.93.57,1,1.44.06,1.3.06,3.68.06,6.83,0,1.94,0,6.29-.1,7.23s-.29,1.48-1,1.63c-.39.1-.9.17-1.51.27-.2.09-.13.89,0,1,.67,0,2.09-.1,4.58-.1h4.65c.15-.06.23-1,.06-1.06a13.44,13.44,0,0,1-1.75-.29c-.7-.19-.89-.55-1-1.55,0-1.26-.06-3.58-.06-5.51,0-.07.09-.19.13-.19h1.29a1.07,1.07,0,0,1,.9.58,66,66,0,0,0,4,6.12,4.72,4.72,0,0,0,1.58,1.32c1.26.62,4.33.74,6.08.62a2.39,2.39,0,0,0,.22-1.07,4.15,4.15,0,0,1-3.23-1.52,46.81,46.81,0,0,1-5.16-7c0-.07,0-.22,0-.26,2.06-.87,3.74-2.38,3.74-5,0-2.87-2.1-4.93-6-4.93-1.71,0-3.46.06-5.87.06-1.16,0-3.49-.1-4.26-.1-.17.08-.23.84-.07,1Z"/><path class="cls-2" d="M116,41.29a10.08,10.08,0,0,1,1.71.29c.64.19.84.45.9,1.44s.09,3.62.09,6.19c0,3.64,0,6.32,0,7.73,0,1.1-.33,1.49-1,1.65a16.82,16.82,0,0,1-2.39.35,1.94,1.94,0,0,0,0,1.07c1.61,0,3.71-.1,5.55-.1,3.42,0,6.26.13,9,.13,1.45,0,1.64-.19,1.81-.51a30.22,30.22,0,0,0,1.42-4.62,2.16,2.16,0,0,0-1.1-.42,13.74,13.74,0,0,1-1.67,2.94c-.68.81-1.1,1-2.56,1a32.17,32.17,0,0,1-4.26-.23,1.11,1.11,0,0,1-.7-1.12c0-1.55,0-4.13,0-5.94,0-.06.09-.25.19-.25,1,0,3.57,0,4.29.06a1.2,1.2,0,0,1,1.1.9c.12.42.1.42.32,1.33a1.87,1.87,0,0,0,1.19,0c0-.84-.06-2.13-.06-3.12s.13-2.36.19-3.1a2,2,0,0,0-1.22-.06,10.86,10.86,0,0,1-.3,1.19c-.19.71-.44,1-1.12,1.06-1.07.1-3.4.07-4.39.07-.1,0-.19-.13-.19-.26,0-1.93,0-4.45,0-6.45,0-.15.15-.54.35-.57.45-.07,3.87-.07,4.65,0a1.47,1.47,0,0,1,1.38,1,7.28,7.28,0,0,1,.52,2.25,1.79,1.79,0,0,0,1.16-.1,37,37,0,0,1,.52-4.7.14.14,0,0,0-.13-.13,37.54,37.54,0,0,1-4,.16h-6.45c-1.65,0-3.56-.1-4.69-.1a1.47,1.47,0,0,0-.06,1Z"/><path class="cls-2" d="M144.37,44.51c.61,1.61,1.74,5,2.16,6.31,0,.07-.07.19-.1.19-.32,0-1.19,0-2.16,0h-2.1c-.06,0-.1-.1-.06-.23.51-1.54,1.52-4.54,2.13-6.28,0,0,.09,0,.13,0Zm-9.72,14.43a1.94,1.94,0,0,0,0,1.07c1,0,2.2-.1,3.59-.1h4.1a2,2,0,0,0,.09-1.06,9.44,9.44,0,0,1-1.59-.29c-.86-.19-.93-.61-.93-1.1a27.21,27.21,0,0,1,1.39-4.38c.07-.13.22-.29.35-.29.42,0,1.07,0,2.59,0,1.06,0,2.16,0,2.67,0a.43.43,0,0,1,.29.23,50,50,0,0,1,1.65,4.76.59.59,0,0,1-.32.71,7.58,7.58,0,0,1-1.65.39,2.11,2.11,0,0,0,0,1.06c1,0,2.39-.1,4.71-.1,2.14,0,3.62.1,4.46.1a2,2,0,0,0,.09-1.06c-2.39-.33-2.58-.55-3.58-3.07-1.13-2.79-4-11.08-5-13.78-.2-.55-.42-1.3-.55-1.81a12.69,12.69,0,0,1-1.46.06l-1.45,0a11.82,11.82,0,0,1-.61,2.12c-.78,2.25-3.52,9.73-5.27,13.82-.9,2.13-1.32,2.39-3.61,2.71Z"/><path class="cls-2" d="M172.61,59a11.18,11.18,0,0,1-2.17-.39c-.68-.22-.83-.77-.9-1.58-.1-1.87-.06-10.24-.06-14.86a.27.27,0,0,1,.13-.25c.57,0,2.67-.07,3.77,0a1.27,1.27,0,0,1,1.22,1,11.22,11.22,0,0,1,.62,2.87,1.78,1.78,0,0,0,1.16,0,33.41,33.41,0,0,1,.78-5.58c0-.06-.17-.22-.26-.22a10.23,10.23,0,0,1-3.49.42H161.82A7.91,7.91,0,0,1,159,39.9a.38.38,0,0,0-.32.19c-.1,1.42-.4,4.09-.65,5.42.06.22,1,.42,1.13.29A20.49,20.49,0,0,1,160.34,43a1.68,1.68,0,0,1,1.52-1.06c.87,0,2.87,0,3.45,0,.06,0,.16.19.16.25,0,5.13,0,11.41-.1,14.41-.06,1.45-.28,1.9-1.19,2.09A15.17,15.17,0,0,1,162,59a1.27,1.27,0,0,0,0,1c1,0,2.68-.1,5.42-.1h5.07a1.29,1.29,0,0,0,.1-1Z"/></g></g></svg>