<svg xmlns="http://www.w3.org/2000/svg" viewBox="0 0 64.37 75.72"><defs><style>.cls-1{fill:#fff;fill-rule:evenodd;}</style></defs><title>logo-white</title><g id="Layer_2" data-name="Layer 2"><g id="Layer_1-2" data-name="Layer 1"><path class="cls-1" d="M22.65,15.62c-2.35.24-4.54-.09-5.94-2.23S15.18,8.83,17.09,7a4.74,4.74,0,0,1,6.71-.28c2.13,1.71,2.08,4.1.89,6.39a16.43,16.43,0,0,1-2.09,2.6Z"/><path class="cls-1" d="M42.2,15.66a17.52,17.52,0,0,1-1.46-2.24,4.68,4.68,0,0,1,1.3-6,4.55,4.55,0,0,1,6.15-.11c1.71,1.33,2.56,3.19,1.68,5.33-1,2.36-2.7,3.82-5.44,3.55a18.39,18.39,0,0,1-2.28-.54l.05,0"/><path class="cls-1" d="M42.15,15.62C46,18.94,50.8,18,56,18.45c-4.4,3.8-9.69,6.29-10.21,12.34-.44,5.27,1,10.43,1.35,15.79C42.4,43,37.05,27.26,33.51,7.31a50.43,50.43,0,0,0,1,13.29,107.93,107.93,0,0,0,4.12,13.12c1.53,4.26,3.28,8.45,5.09,13.08-3.25-2.66-6.06-5.18-9.1-7.38-4.25-3.09-6.51-2.86-10.33.85-2.24,2.15-4.32,4.48-7.06,7.35,1-4.84,2-8.88,2.68-13,1.28-7.87-.31-10.92-7.31-14.7-.87-.47-1.93-.67-2.5-1.93,3.93-2.14,8.76.26,12.52-2.39l0,0c3.25-1.29,4.91-4.1,6.47-6.93,1.44-2.6,2.69-5.3,4.4-8.73C34.84,3.48,35.84,6.25,37,8.94s2.34,5.34,5.19,6.72Z"/><path class="cls-1" d="M47.65,60.47a66.1,66.1,0,0,0,9.41-8.21c2-2.21,2.65-4.63.85-7.31-.44-.64-1.15-1.29-.79-2.1,1.56-3.45.56-6.81-.17-10.2A5.77,5.77,0,0,1,57,30.31,2.57,2.57,0,0,1,59.18,28c1.21-.14,1.77.78,2.22,1.72a28.39,28.39,0,0,1,2.95,13.68C63.94,53.7,60,62.34,52,68.94c-1.58,1.31-3.23,2.5-2.79,4.94.32,1.75-1,1.76-2.11,1.77-3.7,0-7.4,0-11.1,0-1.73,0-2.4-.66-2.12-2.48.25-1.65.13-3.35.23-5,.31-5.33,2.14-9.93,6.94-12.72a42.87,42.87,0,0,0,10-7.86,11.68,11.68,0,0,1,2.38-1.85c1.06-.65,2.26-1.28,3.39-.22a3.28,3.28,0,0,1,.88,4c-1.26,2.9-3.76,4.69-6,6.68-1.49,1.32-3.2,2.4-4,4.3"/><path class="cls-1" d="M16.42,60.66a15.83,15.83,0,0,0-4.81-5.43c-1.89-1.55-3.92-3-4.83-5.47a3.51,3.51,0,0,1,.93-4.28c1.33-1.07,2.71-.38,3.65.56,4.15,4.12,8.92,7.39,13.68,10.73,3.49,2.46,4.79,6.37,5.08,10.57.07,1.11,0,2.24,0,3.36.23,5,.24,5-5,5l-5.71,0c-2.44,0-5.17.59-4.48-3.57.24-1.43-1.38-2.16-2.41-3C1.09,59.69-3.14,43.73,2.45,30.88c.55-1.26.8-3.2,2.77-2.78s2.25,2.33,2.06,4.06c-.38,3.65-1.52,7.27,0,10.94.15.39-.24,1-.48,1.53-2.1,4.28-2,5.27,1.3,8.52,2.69,2.61,5.57,5,8.37,7.51"/></g></g></svg>